# Blender 4.0.2
# www.blender.org
o vent_01
v 0.211830 -0.080581 -0.001190
v -0.210905 -0.080581 -0.001190
v -0.210905 -0.117709 0.008416
v 0.211830 -0.117709 0.008416
v -0.210905 -0.118529 -0.002147
v 0.211830 -0.118529 -0.002147
v 0.211830 -0.040312 -0.001190
v -0.210905 -0.040312 -0.001190
v -0.210905 -0.077440 0.008416
v 0.211830 -0.077440 0.008416
v -0.210905 -0.078260 -0.002147
v 0.211830 -0.078260 -0.002147
v 0.211830 -0.000042 -0.001190
v -0.210905 -0.000042 -0.001190
v -0.210905 -0.037170 0.008416
v 0.211830 -0.037170 0.008416
v -0.210905 -0.037991 -0.002147
v 0.211830 -0.037991 -0.002147
v 0.211830 0.040227 -0.001190
v -0.210905 0.040227 -0.001190
v -0.210905 0.003099 0.008416
v 0.211830 0.003099 0.008416
v -0.210905 0.002279 -0.002147
v 0.211830 0.002279 -0.002147
v 0.211830 0.080496 -0.001190
v -0.210905 0.080496 -0.001190
v -0.210905 0.043368 0.008416
v 0.211830 0.043368 0.008416
v -0.210905 0.042548 -0.002147
v 0.211830 0.042548 -0.002147
v 0.211830 0.120765 -0.001190
v -0.210905 0.120765 -0.001190
v -0.210905 0.083638 0.008416
v 0.211830 0.083638 0.008416
v -0.210905 0.082817 -0.002147
v 0.211830 0.082817 -0.002147
v 0.209928 0.123792 -0.000752
v -0.209928 0.123792 -0.000752
v -0.209928 -0.123792 -0.000752
v 0.209928 -0.123792 -0.000752
v -0.223354 0.137759 0.010449
v 0.223354 0.137759 0.010449
v 0.223354 0.137759 -0.010000
v -0.223354 0.137759 -0.010000
v 0.223354 -0.137759 0.010449
v -0.223354 -0.137759 0.010449
v -0.223354 -0.137759 -0.010000
v 0.223354 -0.137759 -0.010000
v 0.209928 -0.123792 0.010449
v -0.209928 -0.123792 0.010449
v 0.209928 0.123792 0.010449
v -0.209928 0.123792 0.010449
vn -0.0000 -0.9970 0.0774
vn -0.0000 0.2505 0.9681
vn -1.0000 -0.0000 -0.0000
vn -0.0000 -1.0000 -0.0000
vn -0.0000 -0.0000 1.0000
vn 1.0000 -0.0000 -0.0000
vn -0.0000 1.0000 -0.0000
vt 0.715455 0.732951
vt 0.715456 0.004880
vt 0.733703 0.004880
vt 0.733703 0.732951
vt 0.549480 0.732954
vt 0.549480 0.004883
vt 0.615531 0.004883
vt 0.615531 0.732954
vt 0.531232 0.732954
vt 0.531233 0.004883
vt 0.641590 0.732954
vt 0.641590 0.004883
vt 0.707641 0.004883
vt 0.707641 0.732954
vt 0.623342 0.732954
vt 0.623343 0.004883
vt 0.455368 0.994514
vt 0.028942 0.994515
vt 0.028942 0.975223
vt 0.455368 0.975223
vt 0.439115 0.733009
vt 0.439117 0.004883
vt 0.457365 0.004883
vt 0.457365 0.733009
vt 0.917931 0.732953
vt 0.917932 0.004882
vt 0.983983 0.004882
vt 0.983983 0.732953
vt 0.899684 0.732953
vt 0.899685 0.004882
vt 0.807568 0.732950
vt 0.807569 0.004886
vt 0.825816 0.004886
vt 0.825815 0.732951
vt 0.751142 0.819449
vt 0.028007 0.819449
vt 0.028006 0.800158
vt 0.751142 0.800157
vt 0.431310 0.004880
vt 0.431310 0.728011
vt 0.004887 0.728011
vt 0.004887 0.004880
vt 0.487242 0.952103
vt 0.487242 0.916883
vt 0.961777 0.916884
vt 0.961777 0.952103
vt 0.479423 0.952099
vt 0.004886 0.952099
vt 0.004886 0.916879
vt 0.479423 0.916879
vt 0.891866 0.004886
vt 0.891866 0.732951
vt 0.004882 0.828877
vt 0.774265 0.828877
vt 0.774265 0.864097
vt 0.004882 0.864097
vt 0.004883 0.740881
vt 0.774266 0.740881
vt 0.774266 0.776101
vt 0.004882 0.776101
vt 0.937722 0.975227
vt 0.511298 0.975227
vt 0.937722 0.994518
vt 0.511298 0.994519
vt 0.523421 0.004883
vt 0.523421 0.733009
vt 0.751142 0.907445
vt 0.028007 0.907445
vt 0.028007 0.888153
vt 0.751142 0.888153
vt 0.799754 0.004880
vt 0.799754 0.732951
s 1
f 5/1/1 6/2/1 4/3/1 3/4/1
f 9/5/2 10/6/2 7/7/2 8/8/2
f 11/9/1 12/10/1 10/6/1 9/5/1
f 15/11/2 16/12/2 13/13/2 14/14/2
f 17/15/1 18/16/1 16/12/1 15/11/1
f 37/17/3 40/18/3 49/19/3 51/20/3
f 23/21/1 24/22/1 22/23/1 21/24/1
f 27/25/2 28/26/2 25/27/2 26/28/2
f 29/29/1 30/30/1 28/26/1 27/25/1
f 35/31/1 36/32/1 34/33/1 33/34/1
f 38/35/4 37/36/4 51/37/4 52/38/4
f 39/39/5 40/40/5 37/41/5 38/42/5
f 41/43/3 44/44/3 47/45/3 46/46/3
f 42/47/6 45/48/6 48/49/6 43/50/6
f 33/34/2 34/33/2 31/51/2 32/52/2
f 47/53/4 48/54/4 45/55/4 46/56/4
f 43/57/7 44/58/7 41/59/7 42/60/7
f 51/20/5 49/19/5 45/48/5 42/47/5
f 52/38/5 51/37/5 42/60/5 41/59/5
f 50/61/5 52/62/5 41/43/5 46/46/5
f 39/63/6 38/64/6 52/62/6 50/61/6
f 21/24/2 22/23/2 19/65/2 20/66/2
f 40/67/7 39/68/7 50/69/7 49/70/7
f 49/70/5 50/69/5 46/56/5 45/55/5
f 3/4/2 4/3/2 1/71/2 2/72/2
